<?xml version="1.0" encoding="utf-8"?>
<svg xmlns="http://www.w3.org/2000/svg" viewBox="0 0 26 26" width="52" height="52">
  <path d="M12 0L12 2.25C6.503906 2.761719 2.1875 7.371094 2.1875 13C2.1875 15.933594 3.351563 18.582031 5.25 20.53125L7.96875 18.09375C6.660156 16.792969 5.84375 14.988281 5.84375 13C5.84375 9.390625 8.523438 6.398438 12 5.90625L12 8L18.40625 4 Z M 20.75 5.46875L18.0625 7.90625C19.371094 9.207031 20.15625 11.015625 20.15625 13C20.15625 16.613281 17.480469 19.574219 14 20.0625L14 18L7.59375 22L14 26L14 23.75C19.496094 23.238281 23.8125 18.628906 23.8125 13C23.8125 10.066406 22.648438 7.417969 20.75 5.46875Z" fill="#5B5B5B" />
</svg>